<?xml version="1.0" encoding="UTF-8" standalone="no"?>
<!-- Created with Inkscape (http://www.inkscape.org/) -->

<svg
   xmlns:osb="http://www.openswatchbook.org/uri/2009/osb"
   xmlns:dc="http://purl.org/dc/elements/1.1/"
   xmlns:cc="http://creativecommons.org/ns#"
   xmlns:rdf="http://www.w3.org/1999/02/22-rdf-syntax-ns#"
   xmlns:svg="http://www.w3.org/2000/svg"
   xmlns="http://www.w3.org/2000/svg"
   xmlns:sodipodi="http://sodipodi.sourceforge.net/DTD/sodipodi-0.dtd"
   xmlns:inkscape="http://www.inkscape.org/namespaces/inkscape"
   width="25.4mm"
   height="128.5mm"
   viewBox="0 0 25.4 128.5"
   version="1.1"
   id="svg8"
   inkscape:version="0.92.4 (5da689c313, 2019-01-14)"
   sodipodi:docname="Fives.svg"
   enable-background="new">
  <defs
     id="defs2">
    <linearGradient
       id="linearGradient992"
       osb:paint="solid">
      <stop
         style="stop-color:#e1e1e1;stop-opacity:1;"
         offset="0"
         id="stop990" />
    </linearGradient>
    <filter
       inkscape:collect="always"
       style="color-interpolation-filters:sRGB"
       id="filter981">
      <feBlend
         inkscape:collect="always"
         mode="multiply"
         in2="BackgroundImage"
         id="feBlend983" />
    </filter>
  </defs>
  <sodipodi:namedview
     id="base"
     pagecolor="#ffffff"
     bordercolor="#666666"
     borderopacity="1.0"
     inkscape:pageopacity="0.0"
     inkscape:pageshadow="2"
     inkscape:zoom="1.1764019"
     inkscape:cx="84.939208"
     inkscape:cy="269.60698"
     inkscape:document-units="mm"
     inkscape:current-layer="layer1"
     showgrid="false"
     inkscape:snap-text-baseline="true"
     inkscape:snap-bbox="false"
     inkscape:snap-to-guides="true"
     inkscape:snap-bbox-midpoints="true"
     inkscape:bbox-nodes="false"
     inkscape:window-width="960"
     inkscape:window-height="1010"
     inkscape:window-x="960"
     inkscape:window-y="36"
     inkscape:window-maximized="0"
     inkscape:snap-grids="false"
     inkscape:snap-global="false">
    <inkscape:grid
       type="xygrid"
       id="grid934" />
  </sodipodi:namedview>
  <metadata
     id="metadata5">
    <rdf:RDF>
      <cc:Work
         rdf:about="">
        <dc:format>image/svg+xml</dc:format>
        <dc:type
           rdf:resource="http://purl.org/dc/dcmitype/StillImage" />
        <dc:title></dc:title>
      </cc:Work>
    </rdf:RDF>
  </metadata>
  <g
     inkscape:groupmode="layer"
     id="layer3"
     inkscape:label="Background"
     style="filter:url(#filter981);opacity:0.98">
    <rect
       style="fill:#e1e1e1;fill-opacity:1;stroke:none;stroke-width:0.18697605"
       id="rect988"
       width="25.4"
       height="128.5"
       x="0"
       y="0"
       rx="0"
       ry="0" />
  </g>
  <g
     inkscape:label="Silkscreen"
     inkscape:groupmode="layer"
     id="layer1"
     transform="translate(0,-168.5)">
    <flowRoot
       xml:space="preserve"
       id="flowRoot10"
       style="font-style:normal;font-weight:normal;font-size:40px;line-height:1.25;font-family:sans-serif;letter-spacing:0px;word-spacing:0px;fill:#000000;fill-opacity:1;stroke:none"
       transform="matrix(0.26458333,0,0,0.26458333,0,168.5)"><flowRegion
         id="flowRegion12"><rect
           id="rect14"
           width="155"
           height="42.857143"
           x="19.285715"
           y="15.66928" /></flowRegion><flowPara
         id="flowPara16" /></flowRoot>    <flowRoot
       xml:space="preserve"
       id="flowRoot18"
       style="font-style:normal;font-weight:normal;font-size:40px;line-height:1.25;font-family:sans-serif;letter-spacing:0px;word-spacing:0px;fill:#000000;fill-opacity:1;stroke:none"
       transform="matrix(0.26458333,0,0,0.26458333,0,168.5)"><flowRegion
         id="flowRegion20"><rect
           id="rect22"
           width="144.28572"
           height="41.42857"
           x="22.857143"
           y="23.526423" /></flowRegion><flowPara
         id="flowPara24">F I Fivers</flowPara></flowRoot>    <g
       aria-label="FIVES"
       style="font-style:normal;font-variant:normal;font-weight:normal;font-stretch:normal;font-size:7.31119156px;line-height:1.25;font-family:'Roboto Slab';-inkscape-font-specification:'Roboto Slab, Normal';font-variant-ligatures:normal;font-variant-caps:normal;font-variant-numeric:normal;font-feature-settings:normal;text-align:start;letter-spacing:0px;word-spacing:0px;writing-mode:lr-tb;text-anchor:start;fill:#000000;fill-opacity:1;stroke:none;stroke-width:0.18277977"
       id="text28" />
    <g
       aria-label="ON"
       style="font-style:normal;font-variant:normal;font-weight:normal;font-stretch:normal;font-size:4.23333311px;line-height:1.25;font-family:sans-serif;-inkscape-font-specification:'sans-serif, Normal';font-variant-ligatures:normal;font-variant-caps:normal;font-variant-numeric:normal;font-feature-settings:normal;text-align:start;letter-spacing:0px;word-spacing:0px;writing-mode:lr-tb;text-anchor:start;fill:#000000;fill-opacity:1;stroke:none;stroke-width:0.26458332"
       id="text46"
       transform="translate(-2.5659792,-9.4016604)">
      <path
         d="m 15.127848,185.02632 q 0,0.4699 -0.160867,0.82127 -0.156633,0.34713 -0.465666,0.54186 -0.309033,0.19474 -0.766233,0.19474 -0.4699,0 -0.783167,-0.19474 -0.309033,-0.19473 -0.461433,-0.5461 -0.1524,-0.35136 -0.1524,-0.82126 0,-0.46567 0.1524,-0.8128 0.1524,-0.34714 0.461433,-0.54187 0.313267,-0.19473 0.7874,-0.19473 0.452967,0 0.762,0.19473 0.309033,0.1905 0.465666,0.54187 0.160867,0.34713 0.160867,0.81703 z m -2.3876,0 q 0,0.5715 0.2413,0.9017 0.2413,0.32597 0.753534,0.32597 0.516466,0 0.753533,-0.32597 0.237066,-0.3302 0.237066,-0.9017 0,-0.5715 -0.237066,-0.89323 -0.237067,-0.32597 -0.7493,-0.32597 -0.512233,0 -0.757767,0.32597 -0.2413,0.32173 -0.2413,0.89323 z"
         style="font-style:normal;font-variant:normal;font-weight:normal;font-stretch:normal;font-size:4.23333311px;font-family:sans-serif;-inkscape-font-specification:'sans-serif, Normal';font-variant-ligatures:normal;font-variant-caps:normal;font-variant-numeric:normal;font-feature-settings:normal;text-align:start;writing-mode:lr-tb;text-anchor:start;stroke-width:0.26458332"
         id="path1086"
         inkscape:connector-curvature="0" />
      <path
         d="m 18.19384,186.54185 h -0.4445 l -1.617134,-2.51036 h -0.01693 q 0.0085,0.14816 0.02117,0.3683 0.0127,0.22013 0.0127,0.45296 v 1.6891 h -0.351367 v -3.02259 h 0.440267 l 1.6129,2.50189 h 0.01693 q -0.0042,-0.0677 -0.0127,-0.2032 -0.0042,-0.13546 -0.0127,-0.29633 -0.0042,-0.16087 -0.0042,-0.29633 v -1.70603 h 0.3556 z"
         style="font-style:normal;font-variant:normal;font-weight:normal;font-stretch:normal;font-size:4.23333311px;font-family:sans-serif;-inkscape-font-specification:'sans-serif, Normal';font-variant-ligatures:normal;font-variant-caps:normal;font-variant-numeric:normal;font-feature-settings:normal;text-align:start;writing-mode:lr-tb;text-anchor:start;stroke-width:0.26458332"
         id="path1088"
         inkscape:connector-curvature="0" />
    </g>
    <g
       aria-label="OFF"
       style="font-style:normal;font-variant:normal;font-weight:normal;font-stretch:normal;font-size:4.23333311px;line-height:1.25;font-family:sans-serif;-inkscape-font-specification:'sans-serif, Normal';font-variant-ligatures:normal;font-variant-caps:normal;font-variant-numeric:normal;font-feature-settings:normal;text-align:start;letter-spacing:0px;word-spacing:0px;writing-mode:lr-tb;text-anchor:start;fill:#000000;fill-opacity:1;stroke:none;stroke-width:0.26458332"
       id="text46-7"
       transform="translate(-3.2406857,-16.048053)">
      <path
         d="m 15.056382,208.83882 q 0,0.4699 -0.160867,0.82127 -0.156633,0.34713 -0.465667,0.54186 -0.309033,0.19474 -0.766233,0.19474 -0.4699,0 -0.783167,-0.19474 -0.309033,-0.19473 -0.461433,-0.5461 -0.1524,-0.35136 -0.1524,-0.82126 0,-0.46567 0.1524,-0.8128 0.1524,-0.34714 0.461433,-0.54187 0.313267,-0.19473 0.7874,-0.19473 0.452967,0 0.762,0.19473 0.309034,0.1905 0.465667,0.54187 0.160867,0.34713 0.160867,0.81703 z m -2.3876,0 q 0,0.5715 0.2413,0.9017 0.2413,0.32597 0.753533,0.32597 0.516467,0 0.753533,-0.32597 0.237067,-0.3302 0.237067,-0.9017 0,-0.5715 -0.237067,-0.89323 -0.237066,-0.32597 -0.7493,-0.32597 -0.512233,0 -0.757766,0.32597 -0.2413,0.32173 -0.2413,0.89323 z"
         id="path1091"
         inkscape:connector-curvature="0" />
      <path
         d="m 16.107307,210.35435 h -0.381 v -3.02259 h 1.6891 v 0.33443 h -1.3081 v 1.07103 h 1.227666 v 0.33443 h -1.227666 z"
         id="path1093"
         inkscape:connector-curvature="0" />
      <path
         d="m 18.306656,210.35435 h -0.381 v -3.02259 h 1.6891 v 0.33443 h -1.3081 v 1.07103 h 1.227666 v 0.33443 h -1.227666 z"
         id="path1095"
         inkscape:connector-curvature="0" />
    </g>
    <rect
       style="fill:#b1b1b0;fill-opacity:1;stroke-width:0.25674105"
       id="rect112-0"
       width="16.06399"
       height="23.623503"
       x="4.668005"
       y="224.60539"
       rx="1.9582769"
       ry="2.1134145" />
    <g
       aria-label="RESET"
       transform="matrix(0.99599164,0,0,1.0040245,-0.52916637,-28.372277)"
       style="font-style:normal;font-variant:normal;font-weight:normal;font-stretch:normal;font-size:4.25037003px;line-height:1.25;font-family:sans-serif;-inkscape-font-specification:'sans-serif, Normal';font-variant-ligatures:normal;font-variant-caps:normal;font-variant-numeric:normal;font-feature-settings:normal;text-align:start;letter-spacing:0px;word-spacing:0px;writing-mode:lr-tb;text-anchor:start;fill:#000000;fill-opacity:1;stroke:none;stroke-width:0.26564813"
       id="text46-7-3">
      <path
         d="m 8.3154176,254.76373 q 0.5652992,0 0.8330725,0.21677 0.2720237,0.21252 0.2720237,0.64605 0,0.24227 -0.089258,0.40379 -0.089258,0.16151 -0.22952,0.25927 -0.1360118,0.0935 -0.2890251,0.14876 l 0.8330725,1.36012 H 9.1994945 l -0.735314,-1.25386 H 7.860628 v 1.25386 H 7.4780947 v -3.03476 z m -0.021252,0.33153 H 7.860628 v 1.12635 h 0.4547896 q 0.3697822,0 0.539797,-0.14452 0.1700148,-0.14876 0.1700148,-0.43354 0,-0.29752 -0.1785156,-0.42078 -0.1785155,-0.12751 -0.5525482,-0.12751 z"
         style="stroke-width:0.26564813"
         id="path1104"
         inkscape:connector-curvature="0" />
      <path
         d="m 11.813871,257.79849 h -1.695898 v -3.03476 h 1.695898 v 0.33578 h -1.313365 v 0.94783 h 1.236858 v 0.33153 h -1.236858 v 1.08384 h 1.313365 z"
         style="stroke-width:0.26564813"
         id="path1106"
         inkscape:connector-curvature="0" />
      <path
         d="m 14.205301,256.98667 q 0,0.40379 -0.293275,0.62906 -0.293276,0.22527 -0.790569,0.22527 -0.255022,0 -0.471791,-0.0383 -0.216769,-0.0382 -0.361281,-0.10626 v -0.36553 q 0.153013,0.068 0.378282,0.12326 0.22952,0.0553 0.471792,0.0553 0.340029,0 0.510044,-0.13176 0.174265,-0.13177 0.174265,-0.35704 0,-0.14876 -0.06376,-0.25077 -0.06376,-0.10201 -0.22102,-0.18701 -0.153013,-0.0893 -0.429287,-0.18702 -0.386784,-0.14026 -0.586551,-0.34428 -0.195517,-0.20402 -0.195517,-0.5568 0,-0.24227 0.123261,-0.41228 0.12326,-0.17427 0.340029,-0.26778 0.221019,-0.0935 0.505794,-0.0935 0.250772,0 0.45904,0.0468 0.208268,0.0468 0.378283,0.12326 l -0.11901,0.32728 q -0.157264,-0.068 -0.34428,-0.11476 -0.182766,-0.0468 -0.382533,-0.0468 -0.284775,0 -0.429288,0.12326 -0.144512,0.11901 -0.144512,0.31878 0,0.15302 0.06376,0.25502 0.06376,0.10201 0.208268,0.18277 0.144513,0.0808 0.391034,0.17427 0.267774,0.0977 0.45054,0.21251 0.187016,0.11051 0.280524,0.26778 0.09776,0.15726 0.09776,0.39528 z"
         style="stroke-width:0.26564813"
         id="path1108"
         inkscape:connector-curvature="0" />
      <path
         d="m 16.512522,257.79849 h -1.695898 v -3.03476 h 1.695898 v 0.33578 h -1.313364 v 0.94783 h 1.236857 v 0.33153 h -1.236857 v 1.08384 h 1.313364 z"
         style="stroke-width:0.26564813"
         id="path1110"
         inkscape:connector-curvature="0" />
      <path
         d="m 18.143137,257.79849 h -0.382534 v -2.69898 h -0.947832 v -0.33578 h 2.273948 v 0.33578 h -0.943582 z"
         style="stroke-width:0.26564813"
         id="path1112"
         inkscape:connector-curvature="0" />
    </g>
    <text
       xml:space="preserve"
       style="font-style:normal;font-variant:normal;font-weight:normal;font-stretch:normal;font-size:4.23333311px;line-height:1.25;font-family:sans-serif;-inkscape-font-specification:'sans-serif, Normal';font-variant-ligatures:normal;font-variant-caps:normal;font-variant-numeric:normal;font-feature-settings:normal;text-align:start;letter-spacing:0px;word-spacing:0px;writing-mode:lr-tb;text-anchor:start;fill:#ffffff;fill-opacity:1;stroke:none;stroke-width:0.26458332"
       x="11.49667"
       y="256.49011"
       id="text46-7-3-9"><tspan
         sodipodi:role="line"
         id="tspan110"
         x="11.49667"
         y="256.49011">OUT</tspan></text>
    <rect
       style="fill:#000000;fill-opacity:1;stroke-width:0.25674105"
       id="rect112-0-7"
       width="16.06399"
       height="23.623503"
       x="4.668005"
       y="252.71097"
       rx="1.9582769"
       ry="2.1134145" />
    <g
       aria-label="OUT"
       transform="matrix(0.99599164,0,0,1.0040245,-24.341669,-0.25798457)"
       style="font-style:normal;font-variant:normal;font-weight:normal;font-stretch:normal;font-size:4.25026655px;line-height:1.25;font-family:sans-serif;-inkscape-font-specification:'sans-serif, Normal';font-variant-ligatures:normal;font-variant-caps:normal;font-variant-numeric:normal;font-feature-settings:normal;text-align:start;letter-spacing:0px;word-spacing:0px;writing-mode:lr-tb;text-anchor:start;fill:#ffffff;fill-opacity:1;stroke:none;stroke-width:0.26564813"
       id="text46-7-3-5">
      <path
         d="m 35.7505,256.27897 q 0,0.47178 -0.161511,0.82455 -0.157259,0.34853 -0.467529,0.54404 -0.310269,0.19551 -0.769298,0.19551 -0.47178,0 -0.786299,-0.19551 -0.31027,-0.19551 -0.46328,-0.54829 -0.153009,-0.35277 -0.153009,-0.82455 0,-0.46753 0.153009,-0.81605 0.15301,-0.34852 0.46328,-0.54403 0.314519,-0.19552 0.790549,-0.19552 0.454779,0 0.765048,0.19552 0.31027,0.19126 0.467529,0.54403 0.161511,0.34852 0.161511,0.8203 z m -2.397151,0 q 0,0.57379 0.242265,0.90531 0.242266,0.32727 0.756548,0.32727 0.518532,0 0.756547,-0.32727 0.238015,-0.33152 0.238015,-0.90531 0,-0.57378 -0.238015,-0.8968 -0.238015,-0.32727 -0.752297,-0.32727 -0.514282,0 -0.760798,0.32727 -0.242265,0.32302 -0.242265,0.8968 z"
         id="path1115"
         inkscape:connector-curvature="0" />
      <path
         d="m 38.730999,254.76588 v 1.96362 q 0,0.31452 -0.127508,0.56954 -0.127508,0.25076 -0.391025,0.39952 -0.259266,0.14451 -0.663041,0.14451 -0.565286,0 -0.862804,-0.30602 -0.293269,-0.31027 -0.293269,-0.81605 v -1.95512 h 0.382524 v 1.96787 q 0,0.36977 0.195512,0.57379 0.199763,0.20401 0.599288,0.20401 0.412276,0 0.595037,-0.21676 0.187012,-0.22102 0.187012,-0.56529 v -1.96362 z"
         id="path1117"
         inkscape:connector-curvature="0" />
      <path
         d="m 40.488351,257.80057 h -0.382524 v -2.69892 h -0.947809 v -0.33577 h 2.273893 v 0.33577 h -0.94356 z"
         id="path1119"
         inkscape:connector-curvature="0" />
    </g>
    <g
       aria-label="fives"
       style="font-style:normal;font-weight:normal;font-size:10.58333302px;line-height:1.25;font-family:sans-serif;letter-spacing:0px;word-spacing:0px;opacity:1;fill:#000000;fill-opacity:1;stroke:none;stroke-width:0.26458332"
       id="text987">
      <path
         d="M 5.0880293,282.48838 H 3.6592794 v 4.953 H 2.7279461 v -4.953 H 1.7331128 v -0.43392 l 0.9948333,-0.3175 v -0.32808 q 0,-1.10067 0.4868333,-1.57692 0.4868333,-0.48683 1.3546666,-0.48683 0.3386667,0 0.6138333,0.0635 0.28575,0.0529 0.4868333,0.127 l -0.2434166,0.73025 q -0.1693334,-0.0529 -0.3915833,-0.10584 -0.22225,-0.0529 -0.4550834,-0.0529 -0.4656666,0 -0.6984999,0.3175 -0.22225,0.30691 -0.22225,0.97366 v 0.37042 h 1.4287499 z m 1.5028333,-2.84692 q 0.2116667,0 0.3704167,0.14817 0.1693333,0.13758 0.1693333,0.4445 0,0.29633 -0.1693333,0.4445 -0.15875,0.14816 -0.3704167,0.14816 -0.2328333,0 -0.3915833,-0.14816 -0.15875,-0.14817 -0.15875,-0.4445 0,-0.30692 0.15875,-0.4445 0.15875,-0.14817 0.3915833,-0.14817 z m 0.4550833,2.12725 v 5.67267 H 6.1146126 v -5.67267 z"
         style="stroke-width:0.26458332"
         id="path1293" />
      <path
         d="m 10.089315,287.44138 -2.1484161,-5.67267 h 0.9948333 l 1.2064998,3.34433 q 0.08467,0.23284 0.179917,0.51859 0.09525,0.28575 0.169333,0.55033 0.07408,0.254 0.105833,0.43392 h 0.04233 q 0.04233,-0.17992 0.116416,-0.4445 0.08467,-0.26459 0.179917,-0.55034 0.105833,-0.28575 0.179917,-0.508 l 1.2065,-3.34433 h 0.994833 l -2.159,5.67267 z"
         style="stroke-width:0.26458332"
         id="path1295" />
      <path
         d="m 16.405581,281.66288 q 0.73025,0 1.248833,0.3175 0.529167,0.3175 0.804333,0.89958 0.28575,0.5715 0.28575,1.34408 v 0.56092 h -3.884083 q 0.02117,0.96308 0.486833,1.47108 0.47625,0.49742 1.322917,0.49742 0.53975,0 0.9525,-0.0953 0.423333,-0.10583 0.867833,-0.29633 v 0.81491 q -0.433916,0.1905 -0.85725,0.27517 -0.423333,0.0953 -1.005416,0.0953 -0.804334,0 -1.42875,-0.32808 -0.613834,-0.32809 -0.963083,-0.97367 -0.338667,-0.65617 -0.338667,-1.59808 0,-0.93134 0.306917,-1.59809 0.317499,-0.66675 0.878416,-1.02658 0.5715,-0.35983 1.322917,-0.35983 z m -0.01058,0.762 q -0.66675,0 -1.058333,0.43391 -0.381,0.42334 -0.455083,1.18534 h 2.88925 q -0.01058,-0.71967 -0.338667,-1.16417 -0.328083,-0.45508 -1.037167,-0.45508 z"
         style="stroke-width:0.26458332"
         id="path1297" />
      <path
         d="m 23.882209,285.87504 q 0,0.8255 -0.613833,1.24884 -0.613834,0.42333 -1.651,0.42333 -0.592667,0 -1.026584,-0.0953 -0.423333,-0.0952 -0.751416,-0.26458 v -0.84667 q 0.338666,0.16933 0.814916,0.3175 0.486834,0.13758 0.98425,0.13758 0.709084,0 1.026584,-0.22225 0.3175,-0.23283 0.3175,-0.61383 0,-0.21167 -0.116417,-0.381 -0.116417,-0.16933 -0.423333,-0.33867 -0.296334,-0.16933 -0.85725,-0.381 -0.550334,-0.21166 -0.941917,-0.42333 -0.391583,-0.21167 -0.60325,-0.508 -0.211667,-0.29633 -0.211667,-0.762 0,-0.71967 0.582084,-1.11125 0.592666,-0.39158 1.545166,-0.39158 0.518584,0 0.963084,0.10583 0.455083,0.0953 0.846666,0.27517 l -0.3175,0.74083 q -0.359833,-0.14817 -0.751416,-0.254 -0.391584,-0.10583 -0.804334,-0.10583 -0.5715,0 -0.878416,0.1905 -0.296334,0.17991 -0.296334,0.49741 0,0.23284 0.137584,0.40217 0.137583,0.15875 0.455083,0.3175 0.328083,0.14817 0.867833,0.35983 0.53975,0.20109 0.92075,0.41275 0.381,0.21167 0.582084,0.51859 0.201083,0.29633 0.201083,0.75141 z"
         style="stroke-width:0.26458332"
         id="path1299" />
    </g>
    <g
       aria-label="nora&lt;&gt;codes"
       style="font-style:normal;font-variant:normal;font-weight:normal;font-stretch:normal;font-size:3.52777767px;line-height:1.25;font-family:'Fira Code';-inkscape-font-specification:'Fira Code, Normal';font-variant-ligatures:normal;font-variant-caps:normal;font-variant-numeric:normal;font-feature-settings:normal;text-align:start;letter-spacing:0px;word-spacing:0px;writing-mode:lr-tb;text-anchor:start;fill:#000000;fill-opacity:1;stroke:none;stroke-width:0.26458332"
       id="text991">
      <path
         d="m 1.7039955,291.48972 h 0.2963333 v -1.35291 c 0.097014,-0.14464 0.2822222,-0.31044 0.5009444,-0.31044 0.2804583,0 0.3175,0.15346 0.3175,0.53269 v 1.13066 h 0.2963333 v -1.34938 c 0,-0.34219 -0.1569861,-0.5468 -0.5221111,-0.5468 -0.2151944,0 -0.4621388,0.10583 -0.6138333,0.29633 l -0.02293,-0.25753 H 1.7039955 Z"
         style=""
         id="path1272" />
      <path
         d="m 4.5266034,289.59354 c -0.523875,0 -0.8025694,0.39687 -0.8025694,0.97013 0,0.58385 0.2751666,0.96662 0.7990416,0.96662 0.5203472,0 0.7990416,-0.40217 0.7990416,-0.97014 0,-0.58914 -0.2716388,-0.96661 -0.7955138,-0.96661 z m 0,0.24165 c 0.3157361,0 0.4780139,0.23107 0.4780139,0.72496 0,0.49389 -0.1622778,0.72672 -0.4815417,0.72672 -0.3192639,0 -0.4815416,-0.23283 -0.4815416,-0.7232 0,-0.49741 0.1658055,-0.72848 0.4850694,-0.72848 z"
         style=""
         id="path1274" />
      <path
         d="m 5.9522113,291.48972 h 0.9630833 v -0.22755 H 6.5378224 v -0.78669 c 0.1234723,-0.40922 0.3245556,-0.61031 0.6120695,-0.61031 0.00529,0 0.010583,0 0.015875,0 v 0.39512 h 0.2434166 l 0.042333,-0.62795 c -0.084667,-0.0247 -0.15875,-0.0406 -0.2628195,-0.0406 -0.3369028,0 -0.523875,0.17463 -0.66675,0.47978 l -0.05468,-0.43921 H 5.9522113 v 0.22754 h 0.2892778 v 1.40229 H 5.9522113 Z"
         style=""
         id="path1276" />
      <path
         d="m 9.3798329,291.08402 v -0.89076 c 0,-0.36689 -0.2328333,-0.59972 -0.6949722,-0.59972 -0.1799167,0 -0.381,0.0317 -0.6067778,0.11641 l 0.077611,0.22402 c 0.1922639,-0.067 0.3598334,-0.0952 0.4833056,-0.0952 0.2769305,0 0.4427361,0.10054 0.4427361,0.36865 v 0.15522 H 8.8083329 c -0.5644444,0 -0.8713611,0.21167 -0.8713611,0.59443 0,0.34572 0.2275417,0.57327 0.5997222,0.57327 0.2398889,0 0.4497917,-0.0882 0.5820833,-0.26106 0.052917,0.16581 0.1799167,0.23989 0.3404306,0.26106 l 0.072319,-0.20814 c -0.1040694,-0.0318 -0.1516944,-0.0882 -0.1516944,-0.23813 z m -0.7672916,0.22049 c -0.2416528,0 -0.3580695,-0.11995 -0.3580695,-0.35102 0,-0.23812 0.1499306,-0.38982 0.5591528,-0.38982 h 0.2681111 v 0.47802 c -0.111125,0.1658 -0.28575,0.26282 -0.4691944,0.26282 z"
         style=""
         id="path1278" />
      <path
         d="m 11.925897,289.22312 -1.629834,1.00894 v 0.30339 l 1.629834,1.01953 1.633361,-1.01953 v -0.30339 z m 0,2.01612 -1.375834,-0.85372 1.375834,-0.84667 1.379361,0.84667 z"
         style=""
         id="path1280" />
      <path
         d="m 15.235337,291.27452 c -0.319264,0 -0.550333,-0.2099 -0.550333,-0.70555 0,-0.49037 0.229305,-0.72849 0.550333,-0.72849 0.162278,0 0.321028,0.0564 0.479778,0.16581 l 0.144639,-0.19756 c -0.176389,-0.14288 -0.382764,-0.21519 -0.620889,-0.21519 -0.557389,0 -0.874889,0.41804 -0.874889,0.97543 0,0.58208 0.315736,0.96132 0.871361,0.96132 0.218722,0 0.465667,-0.0864 0.627944,-0.22402 l -0.144638,-0.19403 c -0.137584,0.0953 -0.296334,0.16228 -0.483306,0.16228 z"
         style=""
         id="path1282" />
      <path
         d="m 17.218334,289.59354 c -0.523875,0 -0.802569,0.39687 -0.802569,0.97013 0,0.58385 0.275166,0.96662 0.799041,0.96662 0.520348,0 0.799042,-0.40217 0.799042,-0.97014 0,-0.58914 -0.271639,-0.96661 -0.795514,-0.96661 z m 0,0.24165 c 0.315736,0 0.478014,0.23107 0.478014,0.72496 0,0.49389 -0.162278,0.72672 -0.481542,0.72672 -0.319264,0 -0.481541,-0.23283 -0.481541,-0.7232 0,-0.49741 0.165805,-0.72848 0.485069,-0.72848 z"
         style=""
         id="path1284" />
      <path
         d="m 19.737553,288.84741 v 0.96485 c -0.123472,-0.14464 -0.283986,-0.21872 -0.497416,-0.21872 -0.458611,0 -0.728486,0.41098 -0.728486,0.97013 0,0.57503 0.22225,0.96662 0.707319,0.96662 0.204611,0 0.388056,-0.0882 0.527403,-0.28575 l 0.02822,0.24518 h 0.259292 v -2.60527 z m -0.419805,0.98425 c 0.171097,0 0.319264,0.0882 0.419805,0.23813 v 0.9278 c -0.100541,0.1517 -0.246944,0.29281 -0.456847,0.29281 -0.291041,0 -0.446264,-0.24518 -0.446264,-0.72673 0,-0.49036 0.172861,-0.73201 0.483306,-0.73201 z"
         style=""
         id="path1286" />
      <path
         d="m 20.974425,290.66598 h 1.248833 c 0.0035,-0.0406 0.0071,-0.0988 0.0071,-0.16228 0,-0.56444 -0.28575,-0.91016 -0.754944,-0.91016 -0.493889,0 -0.811389,0.40745 -0.811389,0.97013 0,0.5768 0.306917,0.96662 0.850195,0.96662 0.231069,0 0.465666,-0.0829 0.638527,-0.21873 l -0.139347,-0.19579 c -0.164042,0.11113 -0.306917,0.16757 -0.495653,0.16757 -0.287514,0 -0.527402,-0.18697 -0.543277,-0.61736 z m 0.504472,-0.82903 c 0.278694,0 0.458611,0.20285 0.465666,0.59972 h -0.968375 c 0.0247,-0.40922 0.225778,-0.59972 0.502709,-0.59972 z"
         style=""
         id="path1288" />
      <path
         d="m 23.488353,291.2851 c -0.218722,0 -0.41275,-0.0794 -0.557389,-0.20108 l -0.169333,0.19579 c 0.15875,0.13759 0.391583,0.25048 0.726722,0.25048 0.396875,0 0.783167,-0.15699 0.783167,-0.55387 0,-0.34748 -0.239889,-0.47448 -0.60325,-0.57326 -0.375709,-0.10231 -0.493889,-0.16051 -0.493889,-0.32632 0,-0.14287 0.109361,-0.24342 0.402167,-0.24342 0.239888,0 0.400402,0.0706 0.53975,0.16581 l 0.130527,-0.20108 c -0.155222,-0.11466 -0.375708,-0.20461 -0.673805,-0.20461 -0.419806,0 -0.705556,0.19402 -0.705556,0.50623 0,0.32279 0.246945,0.43921 0.633236,0.53446 0.393348,0.0988 0.449792,0.18874 0.449792,0.35631 0,0.17991 -0.176389,0.29456 -0.462139,0.29456 z"
         style=""
         id="path1290" />
    </g>
  </g>
</svg>
